<?xml version="1.0" standalone="no"?>
<!DOCTYPE svg PUBLIC "-//W3C//DTD SVG 20010904//EN"
 "http://www.w3.org/TR/2001/REC-SVG-20010904/DTD/svg10.dtd">
<svg version="1.0" xmlns="http://www.w3.org/2000/svg"
 width="225.000000pt" height="225.000000pt" viewBox="0 0 225.000000 225.000000"
 preserveAspectRatio="xMidYMid meet">

<g transform="translate(0.000000,225.000000) scale(0.100000,-0.100000)"
fill="#000000" stroke="none">
<path d="M0 1130 l0 -1120 1120 0 1120 0 0 1120 0 1120 -1120 0 -1120 0 0
-1120z m2150 0 l0 -1030 -1030 0 -1030 0 0 1030 0 1030 1030 0 1030 0 0 -1030z"/>
<path d="M130 1130 l0 -990 985 0 c542 0 987 0 990 0 3 0 6 446 8 990 l2 990
-992 0 -993 0 0 -990z m1958 -2 l-3 -963 -962 -3 -963 -2 0 965 0 965 965 0
965 0 -2 -962z"/>
<path d="M601 1710 c-66 -31 -124 -82 -170 -151 -58 -86 -81 -169 -81 -288 0
-153 32 -238 126 -340 120 -130 277 -155 409 -66 42 29 60 27 77 -10 14 -31
34 -32 42 -2 10 38 7 247 -4 247 -5 0 -23 -30 -40 -66 -58 -128 -128 -184
-230 -184 -88 0 -141 35 -177 115 -14 33 -18 78 -21 257 -4 238 5 329 41 392
34 59 67 79 141 84 56 4 71 1 117 -24 59 -33 101 -90 121 -166 6 -27 18 -48
25 -48 10 0 13 29 13 129 0 76 -4 132 -10 136 -5 3 -19 -10 -31 -29 -12 -20
-22 -36 -24 -36 -2 0 -27 15 -56 33 -47 29 -61 32 -138 35 -70 2 -94 -1 -130
-18z"/>
<path d="M1170 1711 c0 -19 6 -21 60 -21 l60 0 -2 -417 -3 -418 -57 -3 c-44
-2 -58 -7 -58 -18 0 -14 30 -15 238 -12 224 3 240 4 290 27 93 42 175 160 208
298 42 178 -22 417 -138 510 -69 57 -117 66 -370 71 -226 4 -228 4 -228 -17z
m480 -39 c85 -43 120 -151 120 -382 0 -210 -16 -299 -68 -369 -33 -45 -73 -59
-186 -67 l-96 -7 0 422 0 421 98 0 c72 0 106 -4 132 -18z"/>
<path d="M1018 597 l-95 -49 -80 25 c-122 39 -198 51 -328 50 -131 0 -219 -18
-249 -52 -58 -64 60 -111 284 -111 111 0 204 12 314 41 44 11 89 18 100 15 12
-3 51 -23 88 -46 l67 -40 91 47 91 47 109 -28 c144 -36 223 -43 372 -35 137 7
194 26 204 66 8 32 -9 49 -69 70 -43 15 -83 18 -232 17 -161 -1 -190 -4 -280
-27 -55 -15 -109 -27 -120 -27 -11 0 -54 19 -96 43 l-75 43 -96 -49z m173 -14
c32 -16 58 -32 58 -38 0 -5 -35 -26 -77 -46 l-77 -36 -57 31 c-32 17 -58 33
-58 36 0 5 137 78 149 79 2 1 30 -11 62 -26z m-436 -3 c78 -15 125 -30 125
-40 0 -5 -33 -16 -72 -25 -243 -55 -538 -41 -538 26 0 21 22 35 77 49 48 12
328 5 408 -10z m1183 -4 c42 -22 40 -54 -3 -76 -37 -19 -347 -20 -438 -2 -90
18 -137 32 -137 41 0 10 105 37 195 51 33 5 125 8 205 6 116 -1 152 -5 178
-20z"/>
</g>
</svg>
