<svg id="eqlOXVFKio01" xmlns="http://www.w3.org/2000/svg" xmlns:xlink="http://www.w3.org/1999/xlink" viewBox="0 0 300 300" shape-rendering="geometricPrecision" text-rendering="geometricPrecision" project-id="c83dcc7f05ee46e1904335b615a02faf" export-id="65099d8e7711491384278ea1e7329246" cached="false"><polygon points="0,-30 25.980762,-15 25.980762,15 0,30 -25.980762,15 -25.980762,-15 0,-30" transform="matrix(1.705207-.022467 0.022017 1.671059 228.693353 92.276147)" fill="none" stroke="#dfa47d"/><polygon points="0,-30 25.980762,-15 25.980762,15 0,30 -25.980762,15 -25.980762,-15 0,-30" transform="matrix(1.705355 0 0 1.671204 71.791682 180.978236)" fill="none" stroke="#dfa47d"/><polygon points="0,-30 25.980762,-15 25.980762,15 0,30 -25.980762,15 -25.980762,-15 0,-30" transform="matrix(1.704885-.040049 0.039247 1.670743 169.306422 168.978236)" fill="none" stroke="#dfa47d"/></svg>
